<svg version="1.1" viewBox="0 0 640 400" class="rounded-lg overflow-hidden" xmlns="http://www.w3.org/2000/svg" xmlns:xlink="http://www.w3.org/1999/xlink" xmlns:svgjs="http://svgjs.dev/svgjs" matcher="0.8496049157641936"><g viewBox="0 0 640 400" matcher="0.8496049157641936"><g matcher="0.8496049157641936"><g matcher="0.8496049157641936"><g matcher="0.8496049157641936"><svg viewBox="0 0 640 400" data-background-color="#ffffff" preserveAspectRatio="xMidYMid meet" height="400" width="640" xmlns="http://www.w3.org/2000/svg" xmlns:xlink="http://www.w3.org/1999/xlink"><rect width="640" height="400" x="0" y="0" opacity="1" fill="none" data-fill-palette-color="background" id="background"></rect><g id="tight-bounds" transform="matrix(1,0,0,1,122.24000000000001,174.37483727146397)"><svg viewBox="0 0 395.52 51.25032545707206" height="51.25032545707206" width="395.52"><g><svg viewBox="0 0 493.44509310280466 63.93917277688604" height="51.25032545707206" width="395.52"><g transform="matrix(1,0,0,1,97.92509310280465,8.836745296950244)"><svg viewBox="0 0 395.52 46.26568218298555" height="46.26568218298555" width="395.52"><g id="textblocktransform"><svg viewBox="0 0 395.52 46.26568218298555" height="46.26568218298555" width="395.52" id="textblock"><g><svg viewBox="0 0 395.52 46.26568218298555" height="46.26568218298555" width="395.52"><g transform="matrix(1,0,0,1,0,0)"><svg width="395.52" viewBox="2.549999952316284 -34.45000076293945 399.62060546875 46.75" height="46.26568218298555" data-palette-color="#000000"><path d="M15.95 0.6L15.95 0.6Q11.8 0.6 8.8-1.49 5.8-3.58 4.17-7.29 2.55-11 2.55-15.9L2.55-15.9Q2.55-21.13 4.31-24.7 6.08-28.28 9.11-30.11 12.15-31.95 15.95-31.95L15.95-31.95Q20.98-31.95 24.04-29.44 27.1-26.93 28.25-22.9L28.25-22.9 24.05-22.05Q23.08-24.98 20.94-26.71 18.8-28.45 15.95-28.45L15.95-28.45Q13.48-28.45 11.39-27.04 9.3-25.63 8.03-22.83 6.75-20.03 6.75-15.9L6.75-15.9Q6.75-12.15 7.76-9.22 8.78-6.3 10.81-4.63 12.85-2.95 15.95-2.95L15.95-2.95Q19.68-2.95 21.86-4.95 24.05-6.95 24.05-10.2L24.05-10.2 28.3-10.2Q28.3-6.83 26.75-4.41 25.2-2 22.41-0.7 19.63 0.6 15.95 0.6ZM56.55 0L52.7 0 52.7-14.05Q52.7-17.48 51.06-19.26 49.42-21.05 46.6-21.05L46.6-21.05Q44.45-21.05 42.87-19.88 41.3-18.7 40.45-16.51 39.6-14.33 39.6-11.3L39.6-11.3 38.1-11.3Q38.1-15.48 39.2-18.43 40.3-21.38 42.41-22.94 44.52-24.5 47.55-24.5L47.55-24.5Q50.37-24.5 52.39-23.24 54.4-21.98 55.47-19.63 56.55-17.28 56.55-14.05L56.55-14.05 56.55 0ZM39.6 0L35.7 0 35.7-34.1 39.6-34.1 39.6 0ZM84.07 0L80.67 0 80.17-5.25 80.17-15.5Q80.17-18.73 78.8-20.14 77.42-21.55 74.67-21.55L74.67-21.55Q73.12-21.55 71.86-21.1 70.6-20.65 69.86-19.71 69.12-18.78 69.12-17.3L69.12-17.3 64.77-17.3Q64.77-19.9 66.05-21.49 67.32-23.08 69.56-23.79 71.8-24.5 74.67-24.5L74.67-24.5Q77.42-24.5 79.55-23.58 81.67-22.65 82.87-20.64 84.07-18.63 84.07-15.4L84.07-15.4 84.07 0ZM72.52 0.6L72.52 0.6Q69.57 0.6 67.65-0.45 65.72-1.5 64.77-3.18 63.82-4.85 63.82-6.7L63.82-6.7Q63.82-9.13 65.03-10.65 66.25-12.18 68.35-12.89 70.45-13.6 73.07-13.6L73.07-13.6Q74.95-13.6 76.83-13.23 78.72-12.85 80.52-12.2L80.52-12.2 80.52-9.75Q79.02-10.35 77.13-10.7 75.25-11.05 73.67-11.05L73.67-11.05Q71.27-11.05 69.62-10.06 67.97-9.08 67.97-6.7L67.97-6.7Q67.97-4.95 69.23-3.7 70.5-2.45 73.27-2.45L73.27-2.45Q75.22-2.45 76.78-3.36 78.35-4.28 79.26-5.65 80.17-7.03 80.17-8.4L80.17-8.4 81.12-8.4Q81.12-6 80.08-3.95 79.05-1.9 77.12-0.65 75.2 0.6 72.52 0.6ZM100.74 0.6L100.74 0.6Q98.79 0.6 97.24-0.15 95.69-0.9 94.79-2.4 93.89-3.9 93.89-6.15L93.89-6.15 93.89-30.55 97.74-30.55 97.74-6.25Q97.74-2.55 101.19-2.55L101.19-2.55Q102.22-2.55 103.18-2.78 104.14-3 105.34-3.45L105.34-3.45 105.89-0.65Q104.62-0.1 103.36 0.25 102.09 0.6 100.74 0.6ZM105.29-21.2L90.04-21.2 90.04-23.9 105.29-23.9 105.29-21.2ZM129.66 0L119.71-31.4 124.11-31.4 132.26-3.45 131.11-3.45 139.46-28.15 142.11-28.15 150.36-3.65 149.26-3.65 158.61-31.4 162.96-31.4 151.86 0 147.76 0 140.51-21.3 141.26-21.3 133.76 0 129.66 0ZM170.96-29.55L170.96-29.55Q169.76-29.55 169.06-30.24 168.36-30.93 168.36-32.05L168.36-32.05Q168.36-33.15 169.06-33.8 169.76-34.45 170.96-34.45L170.96-34.45Q172.16-34.45 172.86-33.8 173.56-33.15 173.56-32.05L173.56-32.05Q173.56-30.93 172.86-30.24 172.16-29.55 170.96-29.55ZM172.91 0L169.01 0 169.01-23.95 172.91-23.95 172.91 0ZM191.01 0.6L191.01 0.6Q189.06 0.6 187.51-0.15 185.96-0.9 185.06-2.4 184.16-3.9 184.16-6.15L184.16-6.15 184.16-30.55 188.01-30.55 188.01-6.25Q188.01-2.55 191.46-2.55L191.46-2.55Q192.48-2.55 193.45-2.78 194.41-3 195.61-3.45L195.61-3.45 196.16-0.65Q194.88-0.1 193.62 0.25 192.36 0.6 191.01 0.6ZM195.56-21.2L180.31-21.2 180.31-23.9 195.56-23.9 195.56-21.2ZM223.31 0L219.46 0 219.46-14.05Q219.46-17.48 217.82-19.26 216.18-21.05 213.36-21.05L213.36-21.05Q211.21-21.05 209.63-19.88 208.06-18.7 207.21-16.51 206.36-14.33 206.36-11.3L206.36-11.3 204.86-11.3Q204.86-15.48 205.96-18.43 207.06-21.38 209.17-22.94 211.28-24.5 214.31-24.5L214.31-24.5Q217.13-24.5 219.14-23.24 221.16-21.98 222.23-19.63 223.31-17.28 223.31-14.05L223.31-14.05 223.31 0ZM206.36 0L202.46 0 202.46-34.1 206.36-34.1 206.36 0ZM244.85 0L240.75 0 251.55-31.4 256.3-31.4 266.85 0 262.75 0 260.1-8.05 247.6-8.05 244.85 0ZM253.85-26.65L248.6-11.1 259.1-11.1 253.85-26.65ZM294.07 0L290.22 0 290.22-14.05Q290.22-17.48 288.59-19.26 286.95-21.05 284.12-21.05L284.12-21.05Q281.97-21.05 280.4-19.88 278.82-18.7 277.97-16.51 277.12-14.33 277.12-11.3L277.12-11.3 275.62-11.3Q275.62-15.48 276.72-18.43 277.82-21.38 279.94-22.94 282.05-24.5 285.07-24.5L285.07-24.5Q287.9-24.5 289.91-23.24 291.92-21.98 293-19.63 294.07-17.28 294.07-14.05L294.07-14.05 294.07 0ZM277.12 0L273.22 0 273.22-23.9 276.57-23.9 277.12-18.4 277.12 0ZM309.25 0L299.45-23.9 303.8-23.9 311.6-3.4 310.7-3.4 316.75-23.9 320.75-23.9 311.75 4.8Q310.62 8.4 308.75 10.35 306.87 12.3 303.95 12.3L303.95 12.3Q302.37 12.3 300.96 11.85 299.55 11.4 298.05 10.55L298.05 10.55 298.05 6.95Q299.37 8 300.61 8.45 301.85 8.9 303.2 8.9L303.2 8.9Q304.7 8.9 305.71 7.95 306.72 7 307.4 5.51 308.07 4.03 308.55 2.4L308.55 2.4 309.25 0ZM335.32 0.6L335.32 0.6Q332.09 0.6 329.58-0.83 327.07-2.25 325.62-5.05 324.17-7.85 324.17-11.95L324.17-11.95Q324.17-16.07 325.62-18.86 327.07-21.65 329.58-23.08 332.09-24.5 335.32-24.5L335.32-24.5Q338.52-24.5 341.03-23.08 343.54-21.65 344.98-18.86 346.42-16.07 346.42-11.95L346.42-11.95Q346.42-7.85 344.98-5.05 343.54-2.25 341.03-0.83 338.52 0.6 335.32 0.6ZM335.22-2.8L335.22-2.8Q337.54-2.8 339.17-3.91 340.79-5.03 341.63-7.08 342.47-9.13 342.47-11.95L342.47-11.95Q342.47-16.23 340.69-18.69 338.92-21.15 335.42-21.15L335.42-21.15Q333.07-21.15 331.46-20.04 329.84-18.93 329.01-16.86 328.17-14.8 328.17-11.95L328.17-11.95Q328.17-7.73 329.96-5.26 331.74-2.8 335.22-2.8ZM374.84 0L370.99 0 370.99-14.05Q370.99-17.48 369.35-19.26 367.72-21.05 364.89-21.05L364.89-21.05Q362.74-21.05 361.17-19.88 359.59-18.7 358.74-16.51 357.89-14.33 357.89-11.3L357.89-11.3 356.39-11.3Q356.39-15.48 357.49-18.43 358.59-21.38 360.7-22.94 362.82-24.5 365.84-24.5L365.84-24.5Q368.67-24.5 370.68-23.24 372.69-21.98 373.77-19.63 374.84-17.28 374.84-14.05L374.84-14.05 374.84 0ZM357.89 0L353.99 0 353.99-23.9 357.34-23.9 357.89-18.4 357.89 0ZM392.46 0.6L392.46 0.6Q389.36 0.6 386.93-0.99 384.49-2.58 383.08-5.4 381.66-8.22 381.66-11.9L381.66-11.9Q381.66-15.83 383.06-18.65 384.46-21.48 386.9-22.99 389.34-24.5 392.46-24.5L392.46-24.5Q395.19-24.5 397.11-23.4 399.04-22.3 400.21-20.43 401.39-18.55 401.85-16.19 402.31-13.83 402.11-11.3L402.11-11.3 384.81-11.3 384.81-13.7 399.54-13.7 398.39-12.95Q398.46-14.43 398.23-15.9 397.99-17.38 397.34-18.61 396.69-19.85 395.51-20.6 394.34-21.35 392.51-21.35L392.51-21.35Q390.21-21.35 388.66-20.18 387.11-19 386.34-17.09 385.56-15.18 385.56-12.95L385.56-12.95 385.56-11.35Q385.56-8.85 386.33-6.88 387.09-4.9 388.61-3.75 390.14-2.6 392.46-2.6L392.46-2.6Q394.79-2.6 396.29-3.73 397.79-4.85 398.11-7.05L398.11-7.05 402.16-7.05Q401.79-4.67 400.46-2.96 399.14-1.25 397.09-0.33 395.04 0.6 392.46 0.6Z" opacity="1" transform="matrix(1,0,0,1,0,0)" fill="#000000" class="wordmark-text-0" data-fill-palette-color="primary" id="text-0"></path></svg></g></svg></g></svg></g></svg></g><g><svg viewBox="0 0 87.00287591577415 63.93917277688604" height="63.93917277688604" width="87.00287591577415"><g><svg xmlns="http://www.w3.org/2000/svg" xmlns:xlink="http://www.w3.org/1999/xlink" version="1.1" x="0" y="0" viewBox="7.552000045776367 18.47899627685547 87.46800231933594 64.28099822998047" enable-background="new 0 0 100 100" xml:space="preserve" height="63.93917277688604" width="87.00287591577415" class="icon-icon-0" data-fill-palette-color="accent" id="icon-0"><path d="M31.805 41.953c0-5.497 2.443-10.57 6.546-14.639-0.238-0.004-0.474-0.013-0.712-0.013-16.615 0-30.087 9.948-30.087 22.221 0 9.36 7.837 17.36 18.926 20.634l-0.585 12.604 8.693-11.016c0 0 1.642 0 3.053 0 7.925 0 15.129-2.267 20.502-5.965C43.185 63.725 31.805 53.826 31.805 41.953z" fill="#000000" data-fill-palette-color="accent"></path><g fill="#000000" data-fill-palette-color="accent"><path d="M76.966 82.062l-11.95-15.139h-2.081c-17.693 0-32.089-10.865-32.089-24.223 0-13.355 14.396-24.221 32.089-24.221 17.691 0 32.085 10.866 32.085 24.221 0 9.637-7.348 18.172-18.857 22.078L76.966 82.062zM62.935 22.48c-15.487 0-28.089 9.071-28.089 20.221 0 11.15 12.602 20.223 28.089 20.223h4.021l5.437 6.889-0.369-7.949 1.504-0.443C84.153 58.281 91.02 50.934 91.02 42.701 91.02 31.551 78.421 22.48 62.935 22.48z" fill="#000000" data-fill-palette-color="accent"></path></g></svg></g></svg></g></svg></g><defs></defs></svg><rect width="395.52" height="51.25032545707206" fill="none" stroke="none" visibility="hidden"></rect></g></svg></g></g></g></g></svg>